<?xml version="1.0" standalone="no"?>
<!DOCTYPE svg PUBLIC "-//W3C//DTD SVG 20010904//EN"
 "http://www.w3.org/TR/2001/REC-SVG-20010904/DTD/svg10.dtd">
<svg version="1.0" xmlns="http://www.w3.org/2000/svg"
 width="600.000000pt" height="600.000000pt" viewBox="0 0 600.000000 600.000000"
 preserveAspectRatio="xMidYMid meet">
<metadata>
Created by potrace 1.11, written by Peter Selinger 2001-2013
</metadata>
<g transform="translate(0.000000,600.000000) scale(0.100000,-0.100000)"
fill="#000000" stroke="none">
<path d="M0 3000 l0 -3000 3000 0 3000 0 0 3000 0 3000 -3000 0 -3000 0 0
-3000z m3355 1953 c39 -8 104 -20 145 -27 87 -15 372 -98 445 -131 123 -54
215 -129 215 -176 0 -18 -114 -2 -185 26 -110 44 -315 65 -396 42 -103 -31
-268 -126 -342 -199 -134 -132 -190 -342 -119 -450 88 -133 97 -142 203 -200
57 -31 122 -61 144 -67 48 -12 245 -7 271 7 11 6 44 36 75 69 52 55 56 63 73
144 17 82 17 90 1 165 -27 120 -52 161 -130 209 -16 10 -54 38 -82 63 -93 78
-64 107 92 92 86 -8 106 -14 198 -59 128 -64 180 -69 221 -20 19 23 26 42 26
74 0 68 15 68 109 -1 92 -68 121 -96 153 -142 17 -26 60 -81 95 -122 141 -168
168 -214 237 -410 21 -58 46 -124 57 -148 10 -23 26 -74 35 -113 9 -38 28 -98
42 -132 l27 -62 0 -280 c0 -257 -2 -288 -23 -375 -12 -52 -30 -115 -38 -140
-8 -25 -22 -70 -31 -100 -8 -30 -23 -68 -33 -85 -10 -16 -23 -48 -30 -70 -21
-66 -70 -158 -105 -195 -17 -19 -48 -62 -68 -95 -19 -33 -48 -71 -62 -85 -15
-14 -39 -43 -53 -65 -34 -53 -149 -190 -203 -241 -24 -22 -69 -56 -99 -74 -30
-18 -73 -47 -95 -65 -79 -64 -210 -134 -279 -150 -37 -9 -112 -34 -166 -55
-54 -22 -106 -40 -117 -40 -10 0 -50 -9 -88 -21 -39 -11 -117 -24 -175 -29
-436 -34 -420 -34 -515 -16 -50 9 -124 16 -165 16 -41 0 -91 4 -110 9 -157 40
-267 74 -331 104 -42 19 -99 40 -127 46 -73 15 -190 74 -250 126 -29 24 -88
63 -130 85 -62 32 -107 69 -229 188 l-152 147 -85 171 c-66 130 -91 192 -106
260 -11 49 -20 101 -20 116 0 15 -12 63 -26 108 -21 65 -25 95 -23 159 4 72 7
83 37 119 17 23 32 46 32 51 0 6 -15 34 -32 63 -31 50 -33 58 -33 148 1 68 5
104 17 125 9 17 19 53 23 80 9 69 51 195 96 290 20 44 45 109 55 145 9 36 28
86 40 112 29 57 111 175 129 185 7 5 28 33 47 64 18 31 47 75 63 99 47 65 256
275 295 295 19 10 57 38 85 62 27 25 72 56 100 70 27 14 97 52 155 84 58 32
128 63 155 70 28 7 77 25 110 42 45 22 80 31 145 37 47 3 99 14 115 22 17 9
55 19 85 23 30 4 78 13 105 21 121 34 357 37 500 7z"/>
<path d="M1845 4299 c-85 -14 -94 -18 -150 -69 -30 -27 -69 -57 -87 -66 -65
-33 -126 -104 -164 -192 l-35 -84 3 -136 c3 -133 4 -139 38 -207 40 -80 66
-99 112 -83 34 12 68 61 68 99 0 14 -10 63 -21 109 -35 139 -15 221 80 320 39
41 76 51 99 28 17 -17 15 -33 -14 -94 -21 -44 -24 -62 -19 -97 9 -50 52 -173
72 -203 19 -29 157 -119 212 -139 116 -40 305 9 393 102 14 15 42 71 62 124
32 86 36 107 36 190 0 84 -3 99 -28 141 -44 77 -129 158 -200 190 -133 61
-326 89 -457 67z"/>
<path d="M4100 3605 c0 -9 9 -15 25 -15 28 0 34 15 9 24 -25 10 -34 7 -34 -9z"/>
<path d="M1775 3010 c-4 -7 -3 -16 3 -22 14 -14 45 -2 40 15 -6 16 -34 21 -43
7z"/>
<path d="M3477 2692 c-10 -10 -17 -29 -17 -41 0 -30 128 -163 235 -244 44 -34
107 -86 140 -117 33 -32 88 -75 121 -98 79 -53 114 -94 114 -136 0 -28 -63
-162 -154 -331 -36 -67 -4 -135 64 -135 66 0 113 46 192 190 193 348 196 360
127 435 -46 50 -155 129 -295 214 -51 31 -115 76 -144 101 -62 54 -300 180
-339 180 -16 0 -35 -8 -44 -18z"/>
</g>
</svg>
